<?xml version="1.0" encoding="utf-8"?>
<!-- Generator: Adobe Illustrator 16.0.3, SVG Export Plug-In . SVG Version: 6.00 Build 0)  -->
<!DOCTYPE svg PUBLIC "-//W3C//DTD SVG 1.1//EN" "http://www.w3.org/Graphics/SVG/1.1/DTD/svg11.dtd">
<svg version="1.1" id="Layer_1" xmlns="http://www.w3.org/2000/svg" xmlns:xlink="http://www.w3.org/1999/xlink" x="0px" y="0px"
	 width="150px" height="130px" viewBox="0 0 150 130" enable-background="new 0 0 150 130" xml:space="preserve">
<g>
	<path d="M55.451,49.944c0-5.893,4.124-8.302,9.226-5.356L90.73,59.645c5.102,2.946,5.089,7.767-0.013,10.712L64.683,85.413
		c-5.102,2.945-9.231,0.535-9.231-5.355L55.451,49.944L55.451,49.944z"/>
	<path fill="none" stroke="#B3B3B3" stroke-width="2" stroke-miterlimit="10" d="M55.451,49.944c0-5.893,4.124-8.302,9.226-5.356
		L90.73,59.645c5.102,2.946,5.089,7.767-0.013,10.712L64.683,85.413c-5.102,2.945-9.231,0.535-9.231-5.355L55.451,49.944
		L55.451,49.944z"/>
</g>
</svg>
